<svg width="1267" height="676" viewBox="0 0 1267 676" fill="none" xmlns="http://www.w3.org/2000/svg">
<path d="M193.276 577.614C165.141 597.97 157.167 633.786 157.167 633.786C157.167 633.786 194.809 636.598 222.944 616.242C251.079 595.886 259.053 560.07 259.053 560.07C259.053 560.07 221.411 557.258 193.276 577.614Z" fill="#3F7C5F"/>
<path d="M204.996 587.171C191.474 618.601 157.608 634.797 157.608 634.797C157.608 634.797 145.666 600.036 159.188 568.606C172.71 537.177 206.576 520.981 206.576 520.981C206.576 520.981 218.518 555.742 204.996 587.171Z" fill="#2C6442"/>
<path d="M1014.46 496.313C1011.47 476.769 1010.68 456.967 1012.11 437.257L1014.46 404.637C1001.48 429.701 1004.42 462.69 1014.46 496.313V496.313Z" fill="#CACACA"/>
<path d="M1024.58 501.77C1023.14 490.107 1022.76 478.344 1023.45 466.617L1024.58 447.201C1018.34 462.12 1019.75 481.756 1024.58 501.77Z" fill="#CACACA"/>
<path d="M1069.57 525.783V536.697C1069.56 537.564 1069.21 538.394 1068.57 539.007C1067.94 539.62 1067.09 539.966 1066.19 539.971H1060.57C1060.42 539.97 1060.28 539.998 1060.14 540.053C1060 540.107 1059.88 540.188 1059.77 540.289C1059.67 540.391 1059.59 540.511 1059.53 540.644C1059.47 540.777 1059.45 540.919 1059.45 541.062V630.556C1059.44 631.423 1059.09 632.253 1058.45 632.866C1057.82 633.479 1056.97 633.825 1056.07 633.83H987.48C986.586 633.829 985.728 633.484 985.096 632.87C984.463 632.256 984.108 631.424 984.107 630.556V541.062C984.106 540.773 983.987 540.496 983.777 540.291C983.566 540.087 983.28 539.972 982.982 539.971H976.236C975.341 539.97 974.484 539.625 973.851 539.011C973.219 538.397 972.863 537.565 972.862 536.697V525.783C972.862 525.353 972.948 524.927 973.118 524.529C973.287 524.132 973.536 523.77 973.849 523.466C974.162 523.162 974.535 522.921 974.944 522.757C975.354 522.592 975.793 522.508 976.236 522.509H1066.19C1067.09 522.511 1067.94 522.857 1068.58 523.47C1069.21 524.084 1069.56 524.915 1069.57 525.783V525.783Z" fill="#8A6C6C"/>
<path d="M1059.55 542.263H984.208V545.537H1059.55V542.263Z" fill="#E6E6E6"/>
<path d="M1059.45 590.442C1034.24 600.567 1008.75 600.679 982.982 590.442V567.375C1007.79 559.288 1034.64 559.288 1059.45 567.375V590.442Z" fill="#383748"/>
<path d="M650.662 237.757C706.94 237.757 752.563 193.476 752.563 138.854C752.563 84.2312 706.94 39.9508 650.662 39.9508C594.383 39.9508 548.76 84.2312 548.76 138.854C548.76 193.476 594.383 237.757 650.662 237.757Z" fill="#FEB8B8"/>
<path d="M745.839 53.5285C730.604 29.517 706.756 11.8238 678.886 3.85489L666.376 12.7154V1.21029C659.683 0.216012 652.908 -0.167014 646.141 0.0662532L635.348 9.54453V0.853712C619.368 2.78106 603.973 7.90112 590.133 15.891C576.293 23.8809 564.309 34.5673 554.937 47.2764C531.498 80.0719 527.541 125.698 550.595 158.756C556.923 139.88 564.604 122.168 570.934 103.294C575.907 103.952 580.949 103.975 585.929 103.364L593.628 85.9273L595.779 102.626C619.644 100.609 655.04 96.1778 677.664 92.1185L675.464 79.3073L688.626 89.9525C695.557 88.4043 699.672 86.999 699.332 85.9256C716.159 112.253 736.751 129.069 753.575 155.397C759.965 118.273 767.321 87.405 745.839 53.5285Z" fill="#2F2E41"/>
<path d="M856.32 393.186C852.816 372.725 849.202 351.872 839.404 333.439C832.965 321.366 822.743 309.861 808.964 307.474C806.249 307.239 803.582 306.64 801.037 305.693C797 303.805 742.744 273.744 734.12 268.508C726.716 264.014 715.027 255.691 709.134 255.691C703.205 255.565 680.47 260.7 591.734 253.968C591.734 253.968 567.357 263.293 548.494 274.602C548.209 274.419 456.394 322.272 452.945 322.146C446.412 321.879 440.341 325.938 436.596 331.05C432.852 336.162 431.095 342.491 429.257 348.609C449.31 391.954 467.659 435.355 487.714 478.7C488.653 480.333 489.152 482.169 489.165 484.039C488.762 485.979 487.908 487.805 486.67 489.378C476.835 504.712 477.147 523.998 478.222 542.02C479.297 560.042 480.627 579.079 472.328 595.233C470.071 599.668 467.136 603.727 464.989 608.162C459.962 618.207 458.145 650.333 461.081 661.125L828.97 671.354C821.06 650.251 856.32 393.186 856.32 393.186Z" fill="#383748"/>
<path d="M397.457 480.622C396.722 485.776 396.649 490.998 397.237 496.169L402.509 569.666C403.004 576.593 403.492 583.503 404.161 590.412C405.427 603.822 407.317 617.126 409.662 630.41C409.715 632.296 410.537 634.084 411.947 635.383C413.357 636.682 415.241 637.384 417.184 637.337C440.395 642.103 464.376 641.913 488.064 640.614C524.211 638.656 616.689 634.951 622.339 627.828C627.989 620.704 624.696 609.182 617.329 603.422C609.962 597.662 487.924 583.619 487.924 583.619C489.117 574.447 492.714 565.81 496.126 557.102C502.256 541.658 507.98 525.706 508.09 509.162C508.2 492.617 501.778 475.222 487.814 465.744C476.328 457.963 461.539 456.519 447.542 456.84C437.358 457.124 419.762 454.756 410.46 458.621C403.099 461.767 398.832 473.627 397.457 480.622Z" fill="#FBBEBE"/>
<path d="M428.195 349.929C426.408 351.745 425.022 353.897 424.123 356.251C409.292 388.693 400.531 423.44 398.252 458.863C398.292 460.59 397.882 462.299 397.06 463.832C396.249 464.851 395.346 465.799 394.363 466.663C393.505 467.65 392.856 468.791 392.453 470.021C392.049 471.252 391.9 472.547 392.012 473.833C392.125 475.12 392.497 476.372 393.108 477.519C393.719 478.665 394.557 479.684 395.574 480.516C395.741 480.653 395.912 480.784 396.087 480.91C399.115 475.38 406.362 473.573 412.803 473.093C443.646 470.724 473.774 484.651 504.709 483.6C502.527 476.281 499.388 469.247 497.608 461.839C489.736 428.946 509.369 393.135 497.333 361.453C494.928 355.113 490.911 348.88 484.581 346.102C481.96 345.076 479.217 344.371 476.416 344.004C468.6 342.633 453.039 336.774 445.481 339.125C442.692 339.998 441.591 342.544 439.279 344.083C435.767 346.26 431.107 347.061 428.195 349.929Z" fill="#383748"/>
<path d="M856.32 393.186C852.816 372.725 849.202 351.872 839.404 333.439C832.965 321.366 822.743 309.861 808.964 307.474C806.249 307.239 803.582 306.64 801.037 305.693C797 303.805 742.744 273.744 734.12 268.508C726.716 264.014 715.027 255.691 709.134 255.691C703.205 255.565 680.47 260.7 591.734 253.968C591.734 253.968 567.357 263.293 548.494 274.602C548.209 274.419 456.394 322.272 452.945 322.146C446.412 321.879 440.341 325.938 436.596 331.05C432.852 336.162 431.095 342.491 429.257 348.609C449.31 391.954 467.659 435.355 487.714 478.7C488.653 480.333 489.152 482.169 489.165 484.039C488.762 485.979 487.908 487.805 486.67 489.378C476.835 504.712 477.147 523.998 478.222 542.02C479.297 560.042 480.627 579.079 472.328 595.233C470.071 599.668 467.136 603.727 464.989 608.162C459.962 618.207 458.145 650.333 461.081 661.125L828.97 671.354C821.06 650.251 856.32 393.186 856.32 393.186Z" fill="#383748"/>
<path d="M856.32 393.186C852.816 372.725 849.202 351.872 839.404 333.439C832.965 321.366 822.743 309.861 808.964 307.474C806.249 307.239 803.582 306.64 801.037 305.693C797 303.805 742.744 273.744 734.12 268.508C726.716 264.014 715.027 255.691 709.134 255.691C703.205 255.565 680.47 260.7 591.734 253.968C591.734 253.968 567.357 263.293 548.494 274.602C548.209 274.419 456.394 322.272 452.945 322.146C446.412 321.879 440.341 325.938 436.596 331.05C432.852 336.162 431.095 342.491 429.257 348.609C449.31 391.954 467.659 435.355 487.714 478.7C488.653 480.333 489.152 482.169 489.165 484.039C488.762 485.979 487.908 487.805 486.67 489.378C476.835 504.712 477.147 523.998 478.222 542.02C479.297 560.042 480.627 579.079 472.328 595.233C470.071 599.668 467.136 603.727 464.989 608.162C459.962 618.207 458.145 650.333 461.081 661.125L828.97 671.354C821.06 650.251 856.32 393.186 856.32 393.186Z" fill="#383748"/>
<path d="M856.32 393.186C852.816 372.725 849.202 351.872 839.404 333.439C832.965 321.366 822.743 309.861 808.964 307.474C806.249 307.239 803.582 306.64 801.037 305.693C797 303.805 742.744 273.744 734.12 268.508C726.716 264.014 715.027 255.691 709.134 255.691C703.205 255.565 680.47 260.7 591.734 253.968C591.734 253.968 567.357 263.293 548.494 274.602C548.209 274.419 456.394 322.272 452.945 322.146C446.412 321.879 440.341 325.938 436.596 331.05C432.852 336.162 431.095 342.491 429.257 348.609C449.31 391.954 467.659 435.355 487.714 478.7C488.653 480.333 489.152 482.169 489.165 484.039C488.762 485.979 487.908 487.805 486.67 489.378C476.835 504.712 477.147 523.998 478.222 542.02C479.297 560.042 480.627 579.079 472.328 595.233C470.071 599.668 467.136 603.727 464.989 608.162C459.962 618.207 458.145 650.333 461.081 661.125L828.97 671.354C821.06 650.251 856.32 393.186 856.32 393.186Z" fill="#383748"/>
<path d="M856.54 458.621C847.238 454.756 829.642 457.124 819.458 456.84C805.461 456.519 790.672 457.963 779.185 465.744C765.222 475.222 758.8 492.617 758.91 509.162C759.02 525.706 764.744 541.658 770.874 557.102C774.286 565.81 777.883 574.448 779.075 583.619C779.075 583.619 657.038 597.662 649.671 603.422C642.304 609.182 639.011 620.704 644.661 627.828C650.311 634.951 826.605 642.103 849.816 637.337C851.759 637.384 853.643 636.682 855.053 635.383C856.463 634.084 857.285 632.296 857.338 630.41C859.683 617.126 861.573 603.822 862.838 590.412C863.508 583.503 863.996 576.593 864.491 569.666L869.763 496.17C870.351 490.998 870.277 485.776 869.543 480.622C868.168 473.627 863.901 461.767 856.54 458.621Z" fill="#FBBEBE"/>
<path d="M827.721 344.083C825.409 342.544 824.308 339.998 821.519 339.125C813.961 336.774 798.4 342.633 790.584 344.004C787.783 344.371 785.04 345.076 782.419 346.102C776.089 348.88 772.072 355.113 769.667 361.453C757.631 393.135 777.264 428.946 769.392 461.839C767.612 469.247 764.473 476.281 762.291 483.6C793.226 484.651 823.354 470.724 854.197 473.093C860.638 473.573 867.885 475.381 870.913 480.91C871.088 480.784 871.259 480.653 871.426 480.516C872.443 479.684 873.281 478.665 873.892 477.519C874.503 476.372 874.875 475.12 874.988 473.833C875.1 472.547 874.951 471.252 874.548 470.021C874.144 468.791 873.495 467.65 872.638 466.663C871.654 465.799 870.751 464.851 869.94 463.832C869.118 462.299 868.708 460.59 868.748 458.863C866.469 423.44 857.708 388.693 842.877 356.251C841.978 353.897 840.592 351.745 838.805 349.929C835.893 347.061 831.233 346.26 827.721 344.083Z" fill="#383748"/>
<path d="M856.32 393.186C852.816 372.725 849.202 351.872 839.404 333.439C832.965 321.366 822.743 309.861 808.964 307.474C806.249 307.239 803.582 306.64 801.037 305.693C797 303.805 742.744 273.744 734.12 268.508C726.716 264.014 715.027 255.691 709.134 255.691C703.205 255.565 680.47 260.7 591.734 253.968C591.734 253.968 567.357 263.293 548.494 274.602C548.209 274.419 456.394 322.272 452.945 322.146C446.412 321.879 440.341 325.938 436.596 331.05C432.852 336.162 431.095 342.491 429.257 348.609C449.31 391.954 467.659 435.355 487.714 478.7C488.653 480.333 489.152 482.169 489.165 484.039C488.762 485.979 487.908 487.805 486.67 489.378C476.835 504.712 477.147 523.998 478.222 542.02C479.297 560.042 480.627 579.079 472.328 595.233C470.071 599.668 467.136 603.727 464.989 608.162C459.962 618.207 458.145 650.333 461.081 661.125L828.97 671.354C821.06 650.251 856.32 393.186 856.32 393.186Z" fill="#383748"/>
<path d="M606.979 640.847C622.169 640.847 634.482 628.895 634.482 614.153C634.482 599.41 622.169 587.459 606.979 587.459C591.789 587.459 579.476 599.41 579.476 614.153C579.476 628.895 591.789 640.847 606.979 640.847Z" fill="#FBBEBE"/>
<path d="M667.879 640.847C683.069 640.847 695.382 628.895 695.382 614.153C695.382 599.41 683.069 587.459 667.879 587.459C652.689 587.459 640.376 599.41 640.376 614.153C640.376 628.895 652.689 640.847 667.879 640.847Z" fill="#FBBEBE"/>
<path d="M821.493 671.786H443.64C439.228 671.781 434.999 670.078 431.88 667.051C428.76 664.023 427.005 659.918 427 655.637V433.149C427.005 428.868 428.76 424.763 431.88 421.735C434.999 418.708 439.228 417.005 443.64 417H821.493C825.904 417.005 830.134 418.708 833.253 421.735C836.373 424.763 838.127 428.868 838.133 433.149V655.637C838.127 659.918 836.373 664.023 833.253 667.051C830.134 670.078 825.904 671.781 821.493 671.786Z" fill="#54526F"/>
<path d="M640.009 554.37C646.089 554.37 651.018 549.586 651.018 543.685C651.018 537.784 646.089 533 640.009 533C633.929 533 629 537.784 629 543.685C629 549.586 633.929 554.37 640.009 554.37Z" fill="white"/>
<path d="M1267 629.427H0V667.216H74.9416V676H1192.09V667.216H1267V629.427Z" fill="#8A6C6C"/>
<path d="M550.647 175.717C534.273 175.717 521 161.788 521 144.605V129.049C521 111.866 534.273 97.9368 550.647 97.9368V175.717H550.647Z" fill="#54526F"/>
<path d="M745.991 97.9368C762.364 97.9368 775.637 111.866 775.637 129.049V144.605C775.637 161.788 762.364 175.717 745.991 175.717V97.9368Z" fill="#54526F"/>
<path d="M761.719 131.493H757.015C757.015 68.8899 708.482 17.958 648.826 17.958C589.171 17.958 540.637 68.8899 540.637 131.493H535.933C535.933 66.1678 586.577 13.0217 648.826 13.0217C711.076 13.0217 761.719 66.1678 761.719 131.493Z" fill="#54526F"/>
</svg>
