<?xml version="1.0" encoding="UTF-8" standalone="no"?>
<svg
   xmlns:dc="http://purl.org/dc/elements/1.1/"
   xmlns:cc="http://creativecommons.org/ns#"
   xmlns:rdf="http://www.w3.org/1999/02/22-rdf-syntax-ns#"
   xmlns:svg="http://www.w3.org/2000/svg"
   xmlns="http://www.w3.org/2000/svg"
   xmlns:sodipodi="http://sodipodi.sourceforge.net/DTD/sodipodi-0.dtd"
   xmlns:inkscape="http://www.inkscape.org/namespaces/inkscape"
   id="e947267e-2fd0-4612-8553-18e563890315"
   data-name="Layer 1"
   width="808.77834"
   height="560.41822"
   viewBox="0 0 808.77834 560.41822"
   version="1.1"
   sodipodi:docname="projects.svg"
   inkscape:version="0.92.5 (2060ec1f9f, 2020-04-08)">
  <metadata
     id="metadata2107">
    <rdf:RDF>
      <cc:Work
         rdf:about="">
        <dc:format>image/svg+xml</dc:format>
        <dc:type
           rdf:resource="http://purl.org/dc/dcmitype/StillImage" />
      </cc:Work>
    </rdf:RDF>
  </metadata>
  <defs
     id="defs2105" />
  <sodipodi:namedview
     pagecolor="#ffffff"
     bordercolor="#666666"
     borderopacity="1"
     objecttolerance="10"
     gridtolerance="10"
     guidetolerance="10"
     inkscape:pageopacity="0"
     inkscape:pageshadow="2"
     inkscape:window-width="1920"
     inkscape:window-height="1020"
     id="namedview2103"
     showgrid="false"
     inkscape:zoom="0.4191507"
     inkscape:cx="404.38916"
     inkscape:cy="280.20911"
     inkscape:window-x="0"
     inkscape:window-y="28"
     inkscape:window-maximized="1"
     inkscape:current-layer="e947267e-2fd0-4612-8553-18e563890315" />
  <path
     d="m 650.54081,360.41384 a 255.75839,250.36675 0 0 1 -33.14853,62.23928 c -0.322,0.44445 -0.64916,0.87911 -0.97872,1.32121 L 573.9967,410.52708 c 0.19181,-0.42867 0.40076,-0.90897 0.62433,-1.43357 13.35806,-30.93201 93.75143,-219.48064 85.21475,-258.78958 0.81543,3.22785 27.45126,110.01849 -9.29497,210.10991 z"
     id="path2012"
     inkscape:connector-curvature="0"
     style="fill:#e6e6e6;stroke-width:0.99999988" />
  <path
     d="m 625.57549,425.24742 c -0.51815,0.38227 -1.05136,0.75976 -1.58967,1.12752 l -31.82016,-10.08783 c 0.38058,-0.34433 0.82327,-0.75052 1.33322,-1.20883 8.32959,-7.6214 33.0753,-30.45655 57.04192,-54.66444 25.75592,-26.01447 50.61804,-53.60933 53.26338,-65.61053 -0.49756,2.73815 -16.19076,86.04303 -78.22869,130.44411 z"
     id="path2014"
     inkscape:connector-curvature="0"
     style="fill:#e6e6e6;stroke-width:0.99999988" />
  <path
     d="M 673.51,553.26089 H 128.03577 a 18.290042,17.904469 0 0 1 -18.29004,-17.90447 v 0 q 296.60146,-33.74409 582.05431,0 v 0 A 18.290049,17.904476 0 0 1 673.51,553.26089 Z"
     id="path2016"
     inkscape:connector-curvature="0"
     style="fill:#2f2e41;stroke-width:0.99999988" />
  <path
     d="m 691.80004,536.4096 -582.05431,-1.0532 67.45806,-111.11312 0.32276,-0.52661 V 178.83589 a 23.118842,22.631474 0 0 1 23.12077,-22.63338 h 397.02347 a 23.11885,22.631481 0 0 1 23.12076,22.63338 v 246.56583 z"
     id="path2018"
     inkscape:connector-curvature="0"
     style="fill:#3f3d56;stroke-width:0.99999988" />
  <path
     d="m 200.12016,172.0006 a 7.5396613,7.3807177 0 0 0 -7.53121,7.37244 v 223.2795 a 7.5399992,7.3810484 0 0 0 7.53121,7.37243 h 401.30546 a 7.5403371,7.3813791 0 0 0 7.53121,-7.37243 v -223.2795 a 7.5399992,7.3810484 0 0 0 -7.53121,-7.37244 z"
     id="path2020"
     inkscape:connector-curvature="0"
     style="fill:#ffffff;stroke-width:0.99999988" />
  <path
     d="m 202.75756,439.51473 a 3.2365667,3.1683366 0 0 0 -2.93243,1.839 l -20.78592,44.23462 a 3.2275175,3.1594781 0 0 0 2.9319,4.48027 h 437.11703 a 3.2272898,3.1592552 0 0 0 2.88619,-4.5728 L 599.3807,441.2612 a 3.211292,3.1435948 0 0 0 -2.88619,-1.74643 z"
     id="path2022"
     inkscape:connector-curvature="0"
     style="fill:#2f2e41;stroke-width:0.99999988" />
  <ellipse
     cx="399.15906"
     cy="163.57495"
     id="circle2024"
     style="fill:#ffffff;stroke-width:0.99999988"
     rx="4.8414855"
     ry="4.7394223" />
  <path
     d="m 356.19402,498.49421 a 3.232593,3.1644466 0 0 0 -3.11629,2.33783 l -5.21396,18.9577 a 3.2273559,3.1593199 0 0 0 3.1163,3.9814 h 99.15749 a 3.2269225,3.1588957 0 0 0 3.04907,-4.19325 l -6.70327,-18.95768 a 3.2293537,3.1612757 0 0 0 -3.0501,-2.12596 z"
     id="path2026"
     inkscape:connector-curvature="0"
     style="fill:#2f2e41;stroke-width:0.99999988" />
  <polygon
     points="695.761,380.985 91.84,380.985 92.295,380.253 92.295,375.126 695.761,375.126 "
     id="polygon2028"
     transform="matrix(0.73451328,0,0,0.719029,109.74573,150.30393)"
     style="fill:#2f2e41;stroke-width:1.37602699" />
  <path
     d="M 482.88128,211.44941 H 378.22074 v 1.87133 h 104.66054 a 19.428475,19.018903 0 0 1 0,38.0378 H 324.51185 a 19.428475,19.018903 0 0 1 0,-38.0378 h 5.91829 v -1.87133 h -5.91829 a 21.3401,20.89023 0 0 0 0,41.78046 h 158.36943 a 21.3401,20.89023 0 1 0 0,-41.78046 z"
     id="path2030"
     inkscape:connector-curvature="0"
     style="fill:#e6e6e6;stroke-width:0.99999988" />
  <path
     d="M 482.88128,276.01015 H 378.22074 v 1.87132 h 104.66054 a 19.428479,19.018906 0 0 1 0,38.03781 H 324.51185 a 19.428478,19.018905 0 0 1 0,-38.03781 h 5.91829 v -1.87132 h -5.91829 a 21.3401,20.89023 0 0 0 0,41.78046 h 158.36943 a 21.3401,20.89023 0 1 0 0,-41.78046 z"
     id="path2032"
     inkscape:connector-curvature="0"
     style="fill:#e6e6e6;stroke-width:0.99999988" />
  <path
     d="M 482.88128,340.57089 H 378.22074 v 1.87133 h 104.66054 a 19.428472,19.0189 0 1 1 0,38.0378 H 324.51185 a 19.428472,19.0189 0 0 1 0,-38.0378 h 5.91829 v -1.87132 h -5.91829 a 21.3401,20.89023 0 0 0 0,41.78045 h 158.36943 a 21.3401,20.89023 0 1 0 0,-41.78045 z"
     id="path2034"
     inkscape:connector-curvature="0"
     style="fill:#e6e6e6;stroke-width:0.99999988" />
  <path
     id="ab287899-84e3-434f-b92d-b2aaa12c9990"
     data-name="Path 40"
     d="m 342.24355,206.50568 a 5.6840457,5.5642203 0 0 0 0,11.12697 h 24.93304 a 5.6840625,5.5642368 0 1 0 0.18663,-11.12697 q -0.0933,-0.002 -0.18663,0 z"
     inkscape:connector-curvature="0"
     style="fill:#3f3d56;stroke-width:0.99999988" />
  <path
     id="af2a4b37-a3ed-4662-953e-6f9b285406f1"
     data-name="Path 40"
     d="m 342.24355,272.00208 a 5.6840457,5.5642203 0 0 0 0,11.12697 h 24.93304 a 5.6840625,5.5642368 0 0 0 0.18663,-11.12697 q -0.0933,-0.002 -0.18663,0 z"
     inkscape:connector-curvature="0"
     style="fill:#3f3d56;stroke-width:0.99999988" />
  <path
     id="ff7e389f-e1f1-4104-a8c8-8a888f7bdbd5"
     data-name="Path 40"
     d="m 342.24355,335.62715 a 5.684053,5.5642275 0 0 0 0,11.12698 h 24.93304 a 5.6840656,5.5642399 0 0 0 0.18663,-11.12698 q -0.0933,-0.002 -0.18663,0 z"
     inkscape:connector-curvature="0"
     style="fill:#3f3d56;stroke-width:0.99999988" />
  <path
     id="ab3f55ca-45f9-4d6f-a8ad-e44fa73330dd"
     data-name="Path 40"
     d="m 332.35426,226.77617 a 5.6840457,5.5642203 0 0 0 0,11.12698 h 142.49799 a 5.6840656,5.5642397 0 1 0 0.18661,-11.12698 q -0.0933,-0.002 -0.18661,0 z"
     inkscape:connector-curvature="0"
     style="fill:#f5aa3c;stroke-width:0.99999988" />
  <path
     id="b755e68c-1f13-420d-a9db-7573ff270e8f"
     data-name="Path 40"
     d="m 332.35426,291.33691 a 5.684053,5.5642275 0 0 0 0,11.12697 h 142.49799 a 5.6840625,5.5642367 0 1 0 0.18661,-11.12697 q -0.0933,-0.002 -0.18661,0 z"
     inkscape:connector-curvature="0"
     style="fill:#f5aa3c;stroke-width:0.99999988" />
  <path
     id="f0f56a0b-ed67-4282-9bfe-4d2fc6a8304e"
     data-name="Path 40"
     d="m 332.35426,355.89765 a 5.684053,5.5642275 0 0 0 0,11.12697 h 142.49799 a 5.6840625,5.5642367 0 1 0 0.18661,-11.12697 q -0.0933,-0.002 -0.18661,0 z"
     inkscape:connector-curvature="0"
     style="fill:#e6e6e6;stroke-width:0.99999988" />
  <ellipse
     cx="279.42896"
     cy="231.90137"
     id="circle2042"
     style="fill:#f5aa3c;stroke-width:0.99999988"
     rx="11.381446"
     ry="11.141513" />
  <polygon
     points="229.577,119.849 225.063,114.045 227.688,112.003 229.826,114.751 237.046,107.129 239.461,109.417 "
     id="polygon2044"
     transform="matrix(0.73451328,0,0,0.719029,109.74573,150.30393)"
     style="fill:#ffffff;stroke-width:1.37602699" />
  <ellipse
     cx="279.42896"
     cy="296.46213"
     id="circle2046"
     style="fill:#f5aa3c;stroke-width:0.99999988"
     rx="11.381446"
     ry="11.141513" />
  <polygon
     points="229.577,209.638 225.063,203.834 227.688,201.792 229.826,204.54 237.046,196.918 239.461,199.206 "
     id="polygon2048"
     transform="matrix(0.73451328,0,0,0.719029,109.74573,150.30393)"
     style="fill:#ffffff;stroke-width:1.37602699" />
  <ellipse
     cx="279.42896"
     cy="361.02286"
     id="circle2050"
     style="fill:#e6e6e6;stroke-width:0.99999988"
     rx="11.381446"
     ry="11.141513" />
  <ellipse
     cx="528.89606"
     cy="231.90137"
     id="circle2052"
     style="fill:#e6e6e6;stroke-width:0.99999988"
     rx="11.381446"
     ry="11.141513" />
  <ellipse
     cx="528.89606"
     cy="296.46213"
     id="circle2054"
     style="fill:#e6e6e6;stroke-width:0.99999988"
     rx="11.381446"
     ry="11.141513" />
  <ellipse
     cx="528.89606"
     cy="361.02286"
     id="circle2056"
     style="fill:#e6e6e6;stroke-width:0.99999988"
     rx="11.381446"
     ry="11.141513" />
  <polygon
     points="229.577,299.427 225.063,293.623 227.688,291.581 229.826,294.329 237.046,286.707 239.461,288.994 "
     id="polygon2058"
     transform="matrix(0.73451328,0,0,0.719029,109.74573,150.30393)"
     style="fill:#ffffff;stroke-width:1.37602699" />
  <rect
     x="203.53085"
     y="531.24884"
     width="1.3256477"
     height="8.9060173"
     transform="matrix(0.7145989,-0.69953442,0.7145989,0.69953442,0,0)"
     id="rect2060"
     style="fill:#ffffff;stroke-width:1.00011349" />
  <rect
     x="199.97505"
     y="535.27338"
     width="8.9060173"
     height="1.3256477"
     transform="matrix(0.7145989,-0.69953442,0.7145989,0.69953442,0,0)"
     id="rect2062"
     style="fill:#ffffff;stroke-width:1.00011349" />
  <rect
     x="157.38535"
     y="577.39435"
     width="1.3256477"
     height="8.9060173"
     transform="matrix(0.7145989,-0.69953442,0.7145989,0.69953442,0,0)"
     id="rect2064"
     style="fill:#ffffff;stroke-width:1.00011349" />
  <rect
     x="153.82953"
     y="581.41895"
     width="8.9060173"
     height="1.3256477"
     transform="matrix(0.7145989,-0.69953442,0.7145989,0.69953442,0,0)"
     id="rect2066"
     style="fill:#ffffff;stroke-width:1.00011349" />
  <rect
     x="111.23985"
     y="623.53986"
     width="1.3256477"
     height="8.9060173"
     transform="matrix(0.7145989,-0.69953442,0.7145989,0.69953442,0,0)"
     id="rect2068"
     style="fill:#ffffff;stroke-width:1.00011349" />
  <rect
     x="107.68401"
     y="627.56445"
     width="8.9060173"
     height="1.3256477"
     transform="matrix(0.7145989,-0.69953442,0.7145989,0.69953442,0,0)"
     id="rect2070"
     style="fill:#ffffff;stroke-width:1.00011349" />
  <path
     d="m 281.6185,356.55964 v 0 a 8.2184691,8.0452155 0 0 0 1.52161,-12.14857 l -10.92615,-11.6588 -10.49461,5.20159 8.03247,15.5301 a 8.2184691,8.0452155 0 0 0 11.86668,3.07568 z"
     id="path2072"
     inkscape:connector-curvature="0"
     style="fill:#ffb8b8;stroke-width:0.99999988" />
  <path
     d="m 140.37955,391.1846 v 0 a 8.2184691,8.0452155 0 0 0 6.96342,-10.16563 l -4.36803,-15.233 h -11.7631 v 17.40728 a 8.2184691,8.0452155 0 0 0 9.16771,7.99135 z"
     id="path2074"
     inkscape:connector-curvature="0"
     style="fill:#ffb8b8;stroke-width:0.99999988" />
  <polygon
     points="152.006,477.034 134.211,477.034 134.211,494.829 164.462,490.084 "
     id="polygon2076"
     transform="matrix(0.73451328,0,0,0.719029,109.74573,150.30393)"
     style="fill:#ffb8b8;stroke-width:1.37602699" />
  <path
     d="m 136.87557,506.95311 23.09057,5.97082 c -4.2529,-8.63644 -6.87182,-16.278 -5.22806,-21.32434 l -10.89177,-1.27946 z"
     id="path2078"
     inkscape:connector-curvature="0"
     style="fill:#ffb8b8;stroke-width:0.99999988" />
  <polygon
     points="75.49,249.861 43.46,475.848 61.848,479.407 112.265,316.886 133.618,478.814 153.192,478.814 151.412,249.861 "
     id="polygon2080"
     transform="matrix(0.73451328,0,0,0.719029,109.74573,150.30393)"
     style="fill:#575a88;stroke-width:1.37602699" />
  <path
     d="m 212.57946,511.27918 21.97845,-7.07735 a 4.2744265,4.1843173 0 0 0 2.48751,-5.84608 v 0 a 4.2744412,4.1843318 0 0 0 -4.11134,-2.30352 l -4.98555,0.32976 -1.95385,-1.07639 a 1.1365124,1.1125536 0 0 0 -1.60831,1.39317 l 1.80181,4.28356 -18.2982,-1.27946 -0.90281,7.07029 a 4.286098,4.1957428 0 0 0 5.59229,4.50602 z"
     id="path2082"
     inkscape:connector-curvature="0"
     style="fill:#575a88;stroke-width:0.99999988" />
  <path
     d="m 138.29508,514.53264 23.89137,1.51643 a 4.42307,4.3298273 0 0 0 4.69472,-4.67153 v 0 a 4.4230553,4.3298129 0 0 0 -3.03785,-3.76591 l -4.91613,-1.56859 -1.45091,-1.77212 a 1.1760292,1.1512374 0 0 0 -2.09366,0.72926 l 0.0394,4.79342 -17.06097,-8.1472 -3.65649,6.44593 a 4.4351308,4.3416337 0 0 0 3.59044,6.44031 z"
     id="path2084"
     inkscape:connector-curvature="0"
     style="fill:#575a88;stroke-width:0.99999988" />
  <ellipse
     cx="189.15611"
     cy="222.05988"
     id="circle2086"
     style="fill:#ffb8b8;stroke-width:0.99999988"
     rx="16.119833"
     ry="15.780011" />
  <path
     d="m 178.7,251.061 h 22.21925 V 230.16314 H 178.7 c 1.83618,6.45399 1.59879,13.48613 0,20.89786 z"
     id="path2088"
     inkscape:connector-curvature="0"
     style="fill:#ffb8b8;stroke-width:0.99999988" />
  <path
     d="m 162.1445,332.0935 60.99398,0.85297 6.0994,-63.08008 a 20.123505,19.699281 0 0 0 -13.65213,-18.65287 l -9.43845,-3.13793 -5.22804,-5.97082 c -6.60071,-1.39636 -13.78248,-1.05787 -21.3479,0.42648 l -5.66373,8.10326 -6.09903,1.90546 a 20.06107,19.638163 0 0 0 -13.95376,19.25981 c 4.53837,22.94722 8.06735,44.27432 8.28966,60.29372 z"
     id="path2090"
     inkscape:connector-curvature="0"
     style="fill:#f5aa3c;stroke-width:0.99999988" />
  <path
     d="m 129.03348,365.78596 15.24849,1.70595 17.42686,-68.66439 1.74269,-44.35464 -0.51452,0.24375 a 28.859409,28.251023 0 0 0 -15.75521,20.02003 z"
     id="path2092"
     inkscape:connector-curvature="0"
     style="fill:#f5aa3c;stroke-width:0.99999988" />
  <path
     d="m 262.34889,340.19675 11.76312,-5.54434 -34.50254,-63.02381 a 45.108399,44.157469 0 0 0 -23.00605,-20.14112 v 0 l 6.53507,40.08977 z"
     id="path2094"
     inkscape:connector-curvature="0"
     style="fill:#f5aa3c;stroke-width:0.99999988" />
  <path
     d="m 179.19301,236.26276 c 0,0 15.80694,-0.91769 16.14913,-3.59415 0.34219,-2.67647 2.65007,-8.78191 5.38417,-8.44694 2.7341,0.33496 10.31136,-8.58742 8.68856,-12.18422 -1.6228,-3.59681 -9.28211,-16.83928 -24.91898,-10.73583 -15.63685,6.10345 -13.84495,21.41002 -12.22211,25.00682 1.62284,3.5968 6.91923,9.95432 6.91923,9.95432 z"
     id="path2096"
     inkscape:connector-curvature="0"
     style="fill:#2f2e41;stroke-width:0.99999988" />
  <path
     d="m 566.03922,429.68086 a 0.78719257,0.77059776 0 0 0 -0.75885,0.5693 l -1.26969,4.61648 a 0.78592921,0.76936103 0 0 0 0.75887,0.96954 h 24.14632 a 0.78581169,0.76924599 0 0 0 0.74249,-1.02113 l -1.63235,-4.61649 a 0.78638461,0.76980683 0 0 0 -0.74274,-0.5177 z"
     id="path2098"
     inkscape:connector-curvature="0"
     style="fill:#f5aa3c;stroke-width:0.99999988" />
  <path
     d="m 530.78259,429.68086 a 0.78719257,0.77059776 0 0 0 -0.75887,0.5693 l -1.26967,4.61648 a 0.78592921,0.76936103 0 0 0 0.75887,0.96954 h 24.14632 a 0.78581169,0.76924599 0 0 0 0.74249,-1.02113 l -1.63236,-4.61649 a 0.78638461,0.76980683 0 0 0 -0.74274,-0.5177 z"
     id="path2100"
     inkscape:connector-curvature="0"
     style="fill:#f5aa3c;stroke-width:0.99999988" />
</svg>
