<?xml version="1.0" encoding="UTF-8" standalone="no"?>
<svg
   xmlns:dc="http://purl.org/dc/elements/1.1/"
   xmlns:cc="http://creativecommons.org/ns#"
   xmlns:rdf="http://www.w3.org/1999/02/22-rdf-syntax-ns#"
   xmlns:svg="http://www.w3.org/2000/svg"
   xmlns="http://www.w3.org/2000/svg"
   xmlns:sodipodi="http://sodipodi.sourceforge.net/DTD/sodipodi-0.dtd"
   xmlns:inkscape="http://www.inkscape.org/namespaces/inkscape"
   id="b52d7e2d-d80f-4111-b6ed-d15502ee1edd"
   data-name="Layer 1"
   width="711.1879"
   height="669.68268"
   viewBox="0 0 711.1879 669.68268"
   version="1.1"
   sodipodi:docname="work.svg"
   inkscape:version="0.92.5 (2060ec1f9f, 2020-04-08)">
  <metadata
     id="metadata1440">
    <rdf:RDF>
      <cc:Work
         rdf:about="">
        <dc:format>image/svg+xml</dc:format>
        <dc:type
           rdf:resource="http://purl.org/dc/dcmitype/StillImage" />
      </cc:Work>
    </rdf:RDF>
  </metadata>
  <defs
     id="defs1438" />
  <sodipodi:namedview
     pagecolor="#ffffff"
     bordercolor="#666666"
     borderopacity="1"
     objecttolerance="10"
     gridtolerance="10"
     guidetolerance="10"
     inkscape:pageopacity="0"
     inkscape:pageshadow="2"
     inkscape:window-width="1920"
     inkscape:window-height="1020"
     id="namedview1436"
     showgrid="false"
     inkscape:zoom="0.70481142"
     inkscape:cx="325.96895"
     inkscape:cy="385.22662"
     inkscape:window-x="0"
     inkscape:window-y="28"
     inkscape:window-maximized="1"
     inkscape:current-layer="b52d7e2d-d80f-4111-b6ed-d15502ee1edd" />
  <title
     id="title1336">feeling_proud</title>
  <polygon
     points="547.27,615.443 549.625,619.279 671.722,619.279 674.189,380.018 516.326,380.018 516.326,565.013 "
     id="polygon1338"
     transform="matrix(0.69277018,0,0,0.73518075,95.060882,177.34485)"
     style="fill:#e6e6e6;stroke-width:1.40122652" />
  <polygon
     points="516.326,380.018 516.326,565.013 547.27,615.443 549.169,380.018 "
     id="polygon1340"
     transform="matrix(0.69277018,0,0,0.73518075,95.060882,177.34485)"
     style="opacity:0.1;stroke-width:1.40122652" />
  <polygon
     points="190.622,610.51 188.267,614.345 66.17,614.345 63.703,375.084 221.566,375.084 221.566,560.08 "
     id="polygon1342"
     transform="matrix(0.69277018,0,0,0.73518075,95.060882,177.34485)"
     style="fill:#e6e6e6;stroke-width:1.40122652" />
  <polygon
     points="221.566,375.084 221.566,560.08 190.622,610.51 188.723,375.084 "
     id="polygon1344"
     transform="matrix(0.69277018,0,0,0.73518075,95.060882,177.34485)"
     style="opacity:0.1;stroke-width:1.40122652" />
  <polygon
     points="47.67,382.484 47.67,366.451 109.335,334.385 656.923,334.385 711.188,371.385 711.188,382.484 "
     id="polygon1346"
     transform="matrix(0.69277018,0,0,0.73518075,95.060882,177.34485)"
     style="fill:#e6e6e6;stroke-width:1.40122652" />
  <polygon
     points="711.188,371.385 711.188,382.484 47.67,382.484 47.67,366.451 "
     id="polygon1348"
     transform="matrix(0.69277018,0,0,0.73518075,95.060882,177.34485)"
     style="opacity:0.1;stroke-width:1.40122652" />
  <polygon
     points="142.635,426.883 113.035,426.883 100.702,418.25 156.201,418.25 "
     id="polygon1350"
     transform="matrix(0.69277018,0,0,0.73518075,95.060882,177.34485)"
     style="fill:#3f3d56;stroke-width:1.40122652" />
  <polygon
     points="142.635,462.649 113.035,462.649 100.702,454.016 156.201,454.016 "
     id="polygon1352"
     transform="matrix(0.69277018,0,0,0.73518075,95.060882,177.34485)"
     style="fill:#3f3d56;stroke-width:1.40122652" />
  <polygon
     points="142.635,513.215 113.035,513.215 100.702,504.581 156.201,504.581 "
     id="polygon1354"
     transform="matrix(0.69277018,0,0,0.73518075,95.060882,177.34485)"
     style="fill:#3f3d56;stroke-width:1.40122652" />
  <polygon
     points="142.635,563.78 113.035,563.78 100.702,555.147 156.201,555.147 "
     id="polygon1356"
     transform="matrix(0.69277018,0,0,0.73518075,95.060882,177.34485)"
     style="fill:#3f3d56;stroke-width:1.40122652" />
  <polygon
     points="595.257,431.816 624.857,431.816 637.19,423.183 581.691,423.183 "
     id="polygon1358"
     transform="matrix(0.69277018,0,0,0.73518075,95.060882,177.34485)"
     style="fill:#3f3d56;stroke-width:1.40122652" />
  <polygon
     points="595.257,467.582 624.857,467.582 637.19,458.949 581.691,458.949 "
     id="polygon1360"
     transform="matrix(0.69277018,0,0,0.73518075,95.060882,177.34485)"
     style="fill:#3f3d56;stroke-width:1.40122652" />
  <polygon
     points="595.257,518.148 624.857,518.148 637.19,509.515 581.691,509.515 "
     id="polygon1362"
     transform="matrix(0.69277018,0,0,0.73518075,95.060882,177.34485)"
     style="fill:#3f3d56;stroke-width:1.40122652" />
  <polygon
     points="595.257,568.713 624.857,568.713 637.19,560.08 581.691,560.08 "
     id="polygon1364"
     transform="matrix(0.69277018,0,0,0.73518075,95.060882,177.34485)"
     style="fill:#3f3d56;stroke-width:1.40122652" />
  <path
     d="M 521.40123,265.90198 H 348.773 a 6.5277655,6.9273877 0 0 0 -6.52859,6.92826 v 123.40577 a 6.5277655,6.9273877 0 0 0 6.52859,6.92826 h 65.53114 l -2.4551,16.63437 c 0,0 -14.03055,7.91001 -4.16529,8.14267 9.86525,0.23265 56.34136,0 56.34136,0 0,0 8.98834,0 -5.26144,-8.37534 l -2.30943,-16.4017 h 64.94699 a 6.5277378,6.9273583 0 0 0 6.52859,-6.92826 V 272.83024 a 6.5277378,6.9273583 0 0 0 -6.52859,-6.92826 z"
     id="path1366"
     inkscape:connector-curvature="0"
     style="fill:#3f3d56;stroke-width:1" />
  <rect
     x="348.49243"
     y="273.23038"
     width="173.18947"
     height="102.83043"
     id="rect1368"
     style="fill:#f2f2f2;stroke-width:1" />
  <ellipse
     cx="435.08716"
     cy="269.97333"
     id="circle1370"
     style="fill:#f2f2f2;stroke-width:1"
     rx="1.0961356"
     ry="1.1632397" />
  <ellipse
     cx="435.08716"
     cy="393.74203"
     id="circle1372"
     style="fill:#f2f2f2;stroke-width:1"
     rx="4.1653152"
     ry="4.420311" />
  <polygon
     points="481.452,361.117 311.202,361.117 311.202,358.585 311.436,357.952 315.632,346.56 477.971,346.56 481.452,357.952 "
     id="polygon1374"
     transform="matrix(0.69277018,0,0,0.73518075,95.060882,177.34485)"
     style="fill:#3f3d56;stroke-width:1.40122652" />
  <path
     d="m 473.98506,438.22667 c -0.21484,0.97479 -1.026,2.00312 -2.85872,2.97559 -6.57681,3.48971 -19.9497,-0.9306 -19.9497,-0.9306 0,0 -10.30368,-1.86119 -10.30368,-6.7468 a 8.2203553,8.7235956 0 0 1 0.90321,-0.56997 c 2.76508,-1.55242 11.93318,-5.38316 28.18917,0.16221 a 6.7795737,7.1946112 0 0 1 3.09,2.14892 3.2331584,3.4310886 0 0 1 0.92972,2.96065 z"
     id="path1376"
     inkscape:connector-curvature="0"
     style="fill:#3f3d56;stroke-width:1" />
  <path
     d="m 473.98506,438.22667 c -8.04999,3.27338 -15.22532,3.51764 -22.58916,-1.91003 a 16.171527,17.16153 0 0 0 -9.61969,-3.36175 c 2.76508,-1.55242 11.93317,-5.38316 28.18917,0.16221 a 6.7795737,7.1946112 0 0 1 3.09,2.14892 3.2331584,3.4310886 0 0 1 0.92968,2.96065 z"
     id="path1378"
     inkscape:connector-curvature="0"
     style="opacity:0.1;stroke-width:1" />
  <ellipse
     cx="463.89185"
     cy="435.38608"
     rx="2.8499529"
     ry="0.93059176"
     id="ellipse1380"
     style="fill:#f2f2f2;stroke-width:1" />
  <polygon
     points="311.202,358.585 311.436,357.952 481.452,357.952 481.452,361.117 311.202,361.117 "
     id="polygon1382"
     transform="matrix(0.69277018,0,0,0.73518075,95.060882,177.34485)"
     style="opacity:0.1;stroke-width:1.40122652" />
  <path
     d="m 160.63951,177.34495 a 5.9259146,6.2886921 0 0 0 -3.43701,0.81481 c -1.02252,0.74312 -1.667,2.04499 -2.32485,3.25646 a 36.706954,38.954111 0 0 1 -9.99964,11.98686 c -2.97125,2.30994 -6.74876,5.19012 -6.2404,9.44905 a 12.034547,12.771288 0 0 0 1.4483,3.98872 c 2.74101,5.87189 10.22083,10.40961 9.4851,17.10992 2.72327,-4.83816 -0.91931,-7.2305 1.80397,-12.06862 1.29691,-2.30405 3.54984,-4.90489 5.5079,-3.45794 0.65562,0.48448 1.0861,1.35343 1.76873,1.77853 1.62887,1.01435 3.36173,-0.92486 4.80359,-2.29842 4.9719,-4.7365 12.04242,-3.49564 18.22946,-2.01985 2.92088,0.6967 6.12915,1.61077 7.85581,4.57333 2.27022,3.89514 -2.1569,8.10194 -3.27546,12.50578 a 2.2612019,2.39963 0 0 0 2.42673,2.98641 c 1.85644,-0.19433 4.05561,-0.35362 4.16547,-1.21815 2.3357,0.0882 5.19764,-0.19248 6.19841,-2.77347 a 10.226784,10.852856 0 0 0 0.47975,-3.15627 c 0.36731,-4.33549 2.10125,-8.29077 3.24992,-12.41715 1.14868,-4.12638 1.64814,-8.96222 -0.29033,-12.6207 a 13.760923,14.603351 0 0 0 -2.5397,-3.27565 c -11.0005,-11.29734 -25.46375,-13.16041 -39.31575,-13.14365 z"
     id="path1384"
     inkscape:connector-curvature="0"
     style="fill:#2f2e41;stroke-width:1" />
  <path
     d="m 151.96343,232.41371 c 0,0 2.39241,21.15732 -6.37978,22.84991 -8.7722,1.6926 7.97473,30.46655 7.97473,30.46655 l 39.87363,5.07777 -9.56967,-33.85173 c 0,0 -6.37979,-2.53889 -2.39242,-19.46474 3.98737,-16.92586 -29.50649,-5.07776 -29.50649,-5.07776 z"
     id="path1386"
     inkscape:connector-curvature="0"
     style="fill:#ffb8b8;stroke-width:1" />
  <polygon
     points="47.028,569.318 51.633,632.631 75.806,632.631 68.9,569.318 "
     id="polygon1388"
     transform="matrix(0.69277018,0,0,0.73518075,95.060882,177.34485)"
     style="fill:#ffb8b8;stroke-width:1.40122652" />
  <polygon
     points="224.303,449.6 227.756,502.552 254.233,491.041 243.872,447.298 "
     id="polygon1390"
     transform="matrix(0.69277018,0,0,0.73518075,95.060882,177.34485)"
     style="fill:#ffb8b8;stroke-width:1.40122652" />
  <path
     d="m 115.67842,418.17506 c 0,0 0.79746,49.085 5.58233,65.16458 4.78488,16.07957 3.98737,16.92585 3.1899,19.46475 -0.79747,2.53887 -1.59494,0.84629 -1.59494,5.07776 0,4.23146 -1.59496,71.08862 0,77.01267 1.59493,5.92406 -4.78485,16.07958 0,16.92587 4.78482,0.84629 27.11406,0 27.91154,-5.07776 0.79748,-5.07777 -6.37979,-6.77035 -3.18989,-10.15552 3.1899,-3.38517 7.97473,-72.78121 7.97473,-72.78121 l 11.16463,-48.23872 20.73428,-25.38879 h 43.86097 l 13.55704,55.85535 c 0,0 -5.58234,16.07957 -1.59495,16.07957 3.98739,0 27.91155,5.07777 27.91155,-13.54069 0,-18.61845 -7.97472,-73.62751 -9.56965,-75.3201 -1.59494,-1.69258 0.79747,-7.61663 -1.59495,-10.15551 -2.39242,-2.53889 -30.30397,-20.31105 -40.67111,-23.69621 -10.36715,-3.38517 -24.91049,-7.41421 -24.91049,-7.41421 z"
     id="path1392"
     inkscape:connector-curvature="0"
     style="fill:#2f2e41;stroke-width:1" />
  <path
     d="m 271.18561,531.57834 c 0,0 -11.96205,-4.23146 -17.54441,8.46295 -5.58233,12.6944 -3.18988,16.07956 -3.18988,16.07956 0,0 18.34187,6.77035 21.53177,3.38517 1.38785,-1.47281 5.79482,-1.98444 10.3311,-2.09246 6.90891,-0.16454 8.74709,-10.53753 2.22204,-12.95305 q -0.29197,-0.10807 -0.59105,-0.18776 c -6.37979,-1.69258 -12.75957,-12.69441 -12.75957,-12.69441 z"
     id="path1394"
     inkscape:connector-curvature="0"
     style="fill:#2f2e41;stroke-width:1" />
  <ellipse
     cx="169.90659"
     cy="220.98874"
     id="circle1396"
     style="fill:#ffb8b8;stroke-width:1"
     rx="23.924185"
     ry="25.388798" />
  <path
     d="m 138.80512,265.84229 c 0,0 39.07617,8.46292 48.64585,-5.07776 9.56968,-13.5407 13.55703,38.08319 13.55703,38.08319 l 4.78485,54.16277 -7.17727,29.62027 c 0,0 -37.48122,32.15914 -49.44331,34.69801 -11.96209,2.53887 -30.30397,4.23147 -30.30397,4.23147 0,0 5.58234,-93.93855 5.58234,-95.63113 0,-1.69259 14.35448,-60.08682 14.35448,-60.08682 z"
     id="path1398"
     inkscape:connector-curvature="0"
     style="fill:#f5aa3c;stroke-width:1" />
  <path
     d="m 150.68913,249.97033 c 0,0 -8.69411,-5.28537 -11.08654,-0.20762 -2.39242,5.07776 -24.72166,17.77215 -27.11408,17.77215 -2.39241,0 4.78484,70.24235 1.59496,78.70528 -3.18991,8.46292 -18.341878,70.24235 -9.56968,75.3201 8.7722,5.07776 2.39242,-5.07776 11.16463,7.61663 8.7722,12.6944 51.83572,12.69437 54.22814,7.61664 2.39242,-5.07772 -19.13934,-43.16098 -15.15199,-78.70526 3.98737,-35.54428 10.36715,-84.62932 4.78485,-91.39966 -5.58231,-6.77035 -8.85029,-16.71826 -8.85029,-16.71826 z"
     id="path1400"
     inkscape:connector-curvature="0"
     style="fill:#2f2e41;stroke-width:1" />
  <path
     d="m 179.47627,255.68676 1.1108,-4.05672 c 0,0 33.18053,11.67338 34.77549,19.29002 1.59494,7.61664 0.79746,60.93311 -4.78484,65.16457 -5.58231,4.23147 -13.55705,11.00181 -7.97473,21.15734 5.58231,10.1555 11.96206,21.15732 16.74693,22.00361 4.78486,0.84629 13.55704,6.77035 11.16462,12.69436 -2.39243,5.92402 -31.10145,-5.07776 -31.10145,-5.07776 0,0 -19.13934,-15.23327 -18.34187,-38.92949 0.79747,-23.6962 -1.59495,-92.24593 -1.59495,-92.24593 z"
     id="path1402"
     inkscape:connector-curvature="0"
     style="fill:#2f2e41;stroke-width:1" />
  <path
     d="m 207.38778,355.54937 -19.13934,38.08319 c 0,0 -27.91155,30.46655 -11.96207,33.85173 15.94949,3.38517 24.72166,-27.92768 24.72166,-27.92768 l 20.73431,-31.31282 z"
     id="path1404"
     inkscape:connector-curvature="0"
     style="fill:#ffb8b8;stroke-width:1" />
  <path
     d="m 161.80496,183.98788 a 5.4299742,5.7623908 0 0 0 -2.79787,0.57589 6.5211981,6.9204182 0 0 0 -1.89253,2.30164 27.55332,29.240102 0 0 1 -8.14012,8.47223 c -2.41872,1.63267 -5.49376,3.66834 -5.07994,6.67853 a 7.8695159,8.3512783 0 0 0 1.17897,2.8192 20.896331,22.17558 0 0 1 2.53913,13.82189 l 6.65067,-10.25871 c 1.05573,-1.62847 2.88972,-3.46675 4.48366,-2.44405 0.5337,0.34242 0.88414,0.95659 1.43983,1.25704 1.32596,0.71695 2.73658,-0.65365 3.91032,-1.62449 4.04733,-3.34773 9.80303,-2.4707 14.83954,-1.42763 2.37772,0.49243 4.98938,1.13849 6.39496,3.23241 2.33581,3.47969 -0.10322,8.50759 1.26003,12.52748 a 3.4800547,3.6930996 0 0 0 1.43994,-2.43872 c 1.90136,0.0623 4.23109,-0.136 5.04575,-1.96027 a 6.3648745,6.7545246 0 0 0 0.39054,-2.23083 c 0.29901,-3.0643 1.71049,-5.85986 2.64557,-8.77636 0.93508,-2.91649 1.34167,-6.33443 -0.23634,-8.92023 a 10.170607,10.79324 0 0 0 -2.06741,-2.3152 c -8.95489,-7.98487 -20.7286,-9.30167 -32.0047,-9.28982 z"
     id="path1406"
     inkscape:connector-curvature="0"
     style="fill:#2f2e41;stroke-width:1" />
  <path
     d="m 207.38778,267.53486 7.43016,2.09296 c 0,0 17.29151,46.99202 13.30415,79.1512 -3.98737,32.15916 -6.37979,25.38879 -6.37979,25.38879 0,0 -6.37978,-15.23328 -20.7343,-11.84811 z"
     id="path1408"
     inkscape:connector-curvature="0"
     style="fill:#2f2e41;stroke-width:1" />
  <path
     d="m 128.74537,636.29124 c -1.92308,2.7733 -1.53751,6.73763 -3.24098,9.66818 -1.4766,2.54024 -4.2594,3.87216 -6.10634,6.12309 a 15.466898,16.413763 0 0 0 -1.56994,2.3966 c -1.7133,3.04551 -3.1059,6.94873 -1.41852,10.01052 1.35739,2.46301 4.21056,3.42565 6.82725,4.08172 3.30733,0.82928 6.74367,1.49294 10.08918,0.85925 3.34552,-0.63369 6.61514,-2.80766 7.80798,-6.18463 a 22.515108,23.893456 0 0 1 0.83486,-2.50013 c 1.81331,-3.78834 7.50096,-3.82929 9.35675,-7.59442 1.29871,-2.63488 0.10487,-5.81985 -1.08846,-8.51028 l -3.64473,-8.21719 c -1.20951,-2.72693 -6.11273,-1.1587 -8.6689,-1.81216 -3.33378,-0.85219 -6.77985,-1.79115 -9.17815,1.67945 z"
     id="path1410"
     inkscape:connector-curvature="0"
     style="fill:#2f2e41;stroke-width:1" />
  <path
     d="m 102.12137,372.47522 33.49386,55.00907 c 0,0 20.7343,27.92767 27.11407,15.23328 6.37979,-12.6944 -22.32923,-33.85173 -22.32923,-33.85173 L 118.8683,366.55122 Z"
     id="path1412"
     inkscape:connector-curvature="0"
     style="fill:#ffb8b8;stroke-width:1" />
  <path
     d="m 118.8683,269.22746 -6.37979,-1.6926 c 0,0 -12.759558,4.23147 -15.949438,22.00363 -3.1899,17.77215 -0.79748,88.86079 3.18988,89.70708 3.987358,0.84628 19.693548,-12.37797 22.207608,-9.57415 2.51406,2.8038 -5.46068,-11.58318 -3.06828,-19.19981 2.3924,-7.61666 2e-5,-81.24415 2e-5,-81.24415 z"
     id="path1414"
     inkscape:connector-curvature="0"
     style="fill:#2f2e41;stroke-width:1" />
  <g
     id="f3c2397c-d780-4cc6-97d8-1503d8277a2c"
     data-name="Group 13"
     transform="matrix(0.69277018,0,0,0.73518075,95.060882,177.34485)"
     style="stroke-width:1.40122652">
    <rect
       id="ad41612f-86f7-46b2-a964-3a5da7bcf3cf"
       data-name="Rectangle 55"
       x="437.40692"
       y="176.36275"
       width="29.75235"
       height="7.1626"
       style="fill:#f5aa3c;stroke-width:1.60214007" />
    <rect
       id="b9a0b375-cc2a-4c59-8850-661af54e4f62"
       data-name="Rectangle 56"
       x="559.72217"
       y="176.36275"
       width="10.46842"
       height="7.1626"
       style="fill:#f5aa3c;stroke-width:1.60214007" />
    <rect
       id="e174c2ab-9bc5-41ec-b37c-b06fbf8a9878"
       data-name="Rectangle 57"
       x="580.659"
       y="176.36275"
       width="10.46842"
       height="7.1626"
       style="fill:#f5aa3c;stroke-width:1.60214007" />
    <rect
       id="ba2479ac-4c7d-43b4-a028-73b1e20e4002"
       data-name="Rectangle 58"
       x="477.62769"
       y="176.36275"
       width="71.075058"
       height="7.1626"
       style="fill:#f5aa3c;stroke-width:1.60214007" />
    <rect
       id="ac60ef86-00f2-480b-8171-28b6fdfc1958"
       data-name="Rectangle 59"
       x="399.94098"
       y="222.6442"
       width="29.75235"
       height="7.1626"
       style="fill:#f5aa3c;stroke-width:1.60214007" />
    <rect
       id="b3d8298d-cd65-487a-8b19-4cee946356e7"
       data-name="Rectangle 60"
       x="522.25623"
       y="222.6442"
       width="10.46842"
       height="7.1626"
       style="fill:#f5aa3c;stroke-width:1.60214007" />
    <rect
       id="ed27f15f-f0c4-4569-8330-a6688f8e356c"
       data-name="Rectangle 61"
       x="543.19305"
       y="222.6442"
       width="10.46842"
       height="7.1626"
       style="fill:#f5aa3c;stroke-width:1.60214007" />
    <rect
       id="f685c005-adaf-4d60-acda-005b037d82a6"
       data-name="Rectangle 62"
       x="440.16177"
       y="222.6442"
       width="71.075058"
       height="7.1626"
       style="fill:#f5aa3c;stroke-width:1.60214007" />
    <rect
       id="eca7c7fc-83f8-48ca-a588-6606db47af3f"
       data-name="Rectangle 63"
       x="522.80719"
       y="192.34088"
       width="29.75235"
       height="7.1626"
       style="fill:#f5aa3c;stroke-width:1.60214007" />
    <rect
       id="a71b5b2f-f8b9-481d-a301-5e3357e5fe42"
       data-name="Rectangle 64"
       x="563.02795"
       y="192.34088"
       width="29.75235"
       height="7.1626"
       style="fill:#f5aa3c;stroke-width:1.60214007" />
    <rect
       id="abb3a25a-f854-41fc-8391-e6ad9fbe2417"
       data-name="Rectangle 66"
       x="399.94098"
       y="192.34088"
       width="10.46842"
       height="7.1626"
       style="fill:#f5aa3c;stroke-width:1.60214007" />
    <rect
       id="add2b425-b775-4eb5-9c25-8c4c14f957c9"
       data-name="Rectangle 67"
       x="420.87784"
       y="192.34088"
       width="10.46842"
       height="7.1626"
       style="fill:#f5aa3c;stroke-width:1.60214007" />
    <rect
       id="b7159612-3b84-4b0b-a885-612eaab04c06"
       data-name="Rectangle 68"
       x="441.81467"
       y="192.34088"
       width="71.075058"
       height="7.1626"
       style="fill:#f5aa3c;stroke-width:1.60214007" />
    <rect
       id="edfc7301-4de5-47dc-80e2-1ae2da982d6d"
       data-name="Rectangle 69"
       x="461.0986"
       y="207.76802"
       width="29.75235"
       height="7.1626"
       style="fill:#f5aa3c;stroke-width:1.60214007" />
    <rect
       id="e1009f91-6275-4375-80fa-0d778e331fdc"
       data-name="Rectangle 70"
       x="420.87784"
       y="207.76802"
       width="29.75235"
       height="7.1626"
       style="fill:#f5aa3c;stroke-width:1.60214007" />
    <rect
       id="a060fb9f-1f1a-4862-9a69-16dd49199e18"
       data-name="Rectangle 71"
       x="399.94101"
       y="207.76802"
       width="10.46842"
       height="7.1626"
       style="fill:#f5aa3c;stroke-width:1.60214007" />
    <rect
       id="b6754d5f-104f-449c-b9a9-cf9ac82bf5fe"
       data-name="Rectangle 73"
       x="582.31189"
       y="207.76802"
       width="10.46842"
       height="7.1626"
       style="fill:#f5aa3c;stroke-width:1.60214007" />
    <rect
       id="e6ed1ccd-2cfd-450f-a339-07df3a1ee6bb"
       data-name="Rectangle 74"
       x="500.7684"
       y="207.76802"
       width="71.075058"
       height="7.1626"
       style="fill:#f5aa3c;stroke-width:1.60214007" />
  </g>
</svg>
